<mxfile host="app.diagrams.net" modified="2024-02-03T18:49:34.658Z" agent="Mozilla/5.0 (Windows NT 10.0; Win64; x64) AppleWebKit/537.36 (KHTML, like Gecko) Chrome/120.0.0.0 Safari/537.36 OPR/106.0.0.0" etag="7PlbYo3_RvW_ZdS-bwq6" version="23.1.1" type="github">
  <diagram name="Page-1" id="cQA4oT049ADoJvo8Z6wP">
    <mxGraphModel dx="1393" dy="1897" grid="1" gridSize="10" guides="1" tooltips="1" connect="1" arrows="1" fold="1" page="1" pageScale="1" pageWidth="850" pageHeight="1100" math="0" shadow="0">
      <root>
        <mxCell id="0" />
        <mxCell id="1" parent="0" />
        <mxCell id="MNwWvnm2JYLO_wdsCj4B-1" value="&lt;div&gt;+---------------------+&lt;/div&gt;&lt;div&gt;| Remote Controlled&amp;nbsp; |&lt;/div&gt;&lt;div&gt;|&amp;nbsp; &amp;nbsp; &amp;nbsp; &amp;nbsp; Car&amp;nbsp; &amp;nbsp; &amp;nbsp; &amp;nbsp; &amp;nbsp; |&lt;/div&gt;&lt;div&gt;+---------------------+&lt;/div&gt;&lt;div&gt;&amp;nbsp; &amp;nbsp; &amp;nbsp; &amp;nbsp; &amp;nbsp;|&lt;/div&gt;&lt;div&gt;&amp;nbsp; &amp;nbsp; &amp;nbsp; &amp;nbsp; &amp;nbsp;|&lt;/div&gt;&lt;div&gt;&amp;nbsp; +------+------+&lt;/div&gt;&lt;div&gt;&amp;nbsp; | Use Cases&amp;nbsp; |&lt;/div&gt;&lt;div&gt;&amp;nbsp; +-------------+---------------------+--------------------------+&lt;/div&gt;&lt;div&gt;&amp;nbsp; | Use Case&amp;nbsp; &amp;nbsp; | Description&amp;nbsp; &amp;nbsp; &amp;nbsp; &amp;nbsp; &amp;nbsp;| Actors&amp;nbsp; &amp;nbsp; &amp;nbsp; &amp;nbsp; &amp;nbsp; &amp;nbsp; &amp;nbsp; &amp;nbsp; &amp;nbsp; &amp;nbsp;|&lt;/div&gt;&lt;div&gt;&amp;nbsp; +-------------+---------------------+--------------------------+&lt;/div&gt;&lt;div&gt;&amp;nbsp; | Control Car | User controls the&amp;nbsp; &amp;nbsp;| User&amp;nbsp; &amp;nbsp; &amp;nbsp; &amp;nbsp; &amp;nbsp; &amp;nbsp; &amp;nbsp; &amp;nbsp; &amp;nbsp; &amp;nbsp; &amp;nbsp;|&lt;/div&gt;&lt;div&gt;&amp;nbsp; |&amp;nbsp; &amp;nbsp; &amp;nbsp; &amp;nbsp; &amp;nbsp; &amp;nbsp; &amp;nbsp;| car using a remote&amp;nbsp; |&amp;nbsp; &amp;nbsp; &amp;nbsp; &amp;nbsp; &amp;nbsp; &amp;nbsp; &amp;nbsp; &amp;nbsp; &amp;nbsp; &amp;nbsp; &amp;nbsp; &amp;nbsp; &amp;nbsp; |&lt;/div&gt;&lt;div&gt;&amp;nbsp; |&amp;nbsp; &amp;nbsp; &amp;nbsp; &amp;nbsp; &amp;nbsp; &amp;nbsp; &amp;nbsp;| control&amp;nbsp; &amp;nbsp; &amp;nbsp; &amp;nbsp; &amp;nbsp; &amp;nbsp; &amp;nbsp;|&amp;nbsp; &amp;nbsp; &amp;nbsp; &amp;nbsp; &amp;nbsp; &amp;nbsp; &amp;nbsp; &amp;nbsp; &amp;nbsp; &amp;nbsp; &amp;nbsp; &amp;nbsp; &amp;nbsp; |&lt;/div&gt;&lt;div&gt;&amp;nbsp; +-------------+---------------------+--------------------------+&lt;/div&gt;&lt;div&gt;&amp;nbsp; | Capture&amp;nbsp; &amp;nbsp; &amp;nbsp;| Capture photos with | User&amp;nbsp; &amp;nbsp; &amp;nbsp; &amp;nbsp; &amp;nbsp; &amp;nbsp; &amp;nbsp; &amp;nbsp; &amp;nbsp; &amp;nbsp; &amp;nbsp;|&lt;/div&gt;&lt;div&gt;&amp;nbsp; | Image&amp;nbsp; &amp;nbsp; &amp;nbsp; &amp;nbsp;| the built-in camera&amp;nbsp; |&amp;nbsp; &amp;nbsp; &amp;nbsp; &amp;nbsp; &amp;nbsp; &amp;nbsp; &amp;nbsp; &amp;nbsp; &amp;nbsp; &amp;nbsp; &amp;nbsp; &amp;nbsp; &amp;nbsp; |&lt;/div&gt;&lt;div&gt;&amp;nbsp; +-------------+---------------------+--------------------------+&lt;/div&gt;&lt;div&gt;&amp;nbsp; | Upload&amp;nbsp; &amp;nbsp; &amp;nbsp; | Upload photos to&amp;nbsp; &amp;nbsp; | Car, Web Application&amp;nbsp; &amp;nbsp; |&lt;/div&gt;&lt;div&gt;&amp;nbsp; | Photos&amp;nbsp; &amp;nbsp; &amp;nbsp; | the web application |&amp;nbsp; &amp;nbsp; &amp;nbsp; &amp;nbsp; &amp;nbsp; &amp;nbsp; &amp;nbsp; &amp;nbsp; &amp;nbsp; &amp;nbsp; &amp;nbsp; &amp;nbsp; &amp;nbsp; |&lt;/div&gt;&lt;div&gt;&amp;nbsp; +-------------+---------------------+--------------------------+&lt;/div&gt;&lt;div&gt;&amp;nbsp; | View Photos | View uploaded photos| User&amp;nbsp; &amp;nbsp; &amp;nbsp; &amp;nbsp; &amp;nbsp; &amp;nbsp; &amp;nbsp; &amp;nbsp; &amp;nbsp; &amp;nbsp; &amp;nbsp;|&lt;/div&gt;&lt;div&gt;&amp;nbsp; | on Web App&amp;nbsp; | on the web&amp;nbsp; &amp;nbsp; &amp;nbsp; &amp;nbsp; &amp;nbsp; &amp;nbsp;|&amp;nbsp; &amp;nbsp; &amp;nbsp; &amp;nbsp; &amp;nbsp; &amp;nbsp; &amp;nbsp; &amp;nbsp; &amp;nbsp; &amp;nbsp; &amp;nbsp; &amp;nbsp; &amp;nbsp; |&lt;/div&gt;&lt;div&gt;&amp;nbsp; |&amp;nbsp; &amp;nbsp; &amp;nbsp; &amp;nbsp; &amp;nbsp; &amp;nbsp; &amp;nbsp;| application&amp;nbsp; &amp;nbsp; &amp;nbsp; &amp;nbsp; &amp;nbsp;|&amp;nbsp; &amp;nbsp; &amp;nbsp; &amp;nbsp; &amp;nbsp; &amp;nbsp; &amp;nbsp; &amp;nbsp; &amp;nbsp; &amp;nbsp; &amp;nbsp; &amp;nbsp; &amp;nbsp; |&lt;/div&gt;&lt;div&gt;&amp;nbsp; +-------------+---------------------+--------------------------+&lt;/div&gt;&lt;div&gt;&amp;nbsp;&amp;nbsp;&lt;/div&gt;&lt;div&gt;&lt;br&gt;&lt;/div&gt;" style="rounded=0;whiteSpace=wrap;html=1;" vertex="1" parent="1">
          <mxGeometry x="45" y="-30" width="760" height="950" as="geometry" />
        </mxCell>
      </root>
    </mxGraphModel>
  </diagram>
</mxfile>
